<?xml version="1.0" standalone="no"?>
<!DOCTYPE svg PUBLIC "-//W3C//DTD SVG 20010904//EN"
 "http://www.w3.org/TR/2001/REC-SVG-20010904/DTD/svg10.dtd">
<svg version="1.0" xmlns="http://www.w3.org/2000/svg"
 width="638.000000pt" height="638.000000pt" viewBox="0 0 638.000000 638.000000"
 preserveAspectRatio="xMidYMid meet">
<metadata>
Created by potrace 1.14, written by Peter Selinger 2001-2017
</metadata>
<g transform="translate(0.000000,638.000000) scale(0.100000,-0.100000)"
fill="#000000" stroke="none">
<path d="M3018 5275 c-2 -1 -21 -5 -43 -8 -70 -10 -168 -36 -255 -66 -47 -17
-94 -32 -105 -34 -11 -1 -58 -22 -105 -45 -153 -77 -208 -112 -268 -168 -26
-24 -50 -44 -55 -44 -16 0 -231 -226 -257 -270 -14 -24 -38 -57 -54 -74 -16
-17 -40 -53 -55 -81 -14 -27 -28 -52 -31 -55 -3 -3 -6 -11 -8 -19 -2 -8 -20
-51 -41 -95 -35 -74 -52 -112 -56 -126 0 -3 -8 -27 -18 -55 -28 -86 -35 -123
-52 -300 -1 -16 -4 -32 -5 -35 -5 -14 -1 -191 5 -209 4 -12 15 -21 26 -21 13
0 18 -4 13 -12 -4 -6 -3 -8 3 -5 5 3 18 37 28 74 21 82 103 255 142 302 85
101 244 231 284 231 8 0 19 4 25 9 12 11 137 42 180 44 19 1 34 5 34 9 0 13
138 -2 230 -25 89 -23 178 -58 208 -82 7 -5 29 -23 47 -40 19 -16 49 -41 66
-55 48 -38 77 -71 90 -102 6 -15 16 -28 20 -28 19 0 137 -270 141 -323 1 -15
9 -29 18 -31 19 -5 1498 0 1524 5 29 6 65 46 73 82 8 40 7 209 -1 257 -4 19
-9 53 -11 75 -3 38 -21 111 -43 183 -6 18 -11 33 -11 35 1 13 -17 66 -27 82
-8 11 -14 27 -14 36 0 10 -3 19 -7 21 -5 2 -26 39 -48 83 -22 44 -43 82 -47
83 -5 2 -8 8 -8 14 0 12 -62 108 -83 130 -7 7 -24 28 -37 47 -52 74 -235 257
-300 301 -13 8 -35 25 -50 37 -15 13 -50 33 -76 46 -65 30 -147 78 -156 92 -4
5 -8 7 -8 3 0 -5 -24 1 -52 13 -94 36 -232 80 -263 83 -29 3 -60 9 -115 22
-25 6 -386 14 -392 9z"/>
<path d="M1670 3242 c-14 -2 -36 -16 -50 -31 l-25 -27 3 -344 c1 -190 4 -361
7 -380 8 -71 14 -110 24 -147 6 -21 12 -49 15 -63 3 -14 10 -41 16 -60 6 -19
13 -42 15 -50 11 -50 74 -190 114 -255 14 -22 26 -46 27 -53 3 -16 55 -95 67
-100 4 -2 7 -8 7 -14 0 -5 6 -15 13 -22 7 -8 29 -33 48 -56 47 -59 129 -151
129 -145 0 2 16 -11 35 -31 19 -19 35 -39 35 -44 0 -6 6 -10 13 -10 7 0 20 -9
30 -20 9 -11 24 -20 32 -20 9 0 13 -5 10 -10 -3 -6 -1 -10 5 -10 14 0 130 -80
130 -90 0 -3 24 -17 53 -29 28 -13 95 -43 147 -66 52 -24 120 -51 150 -60 30
-9 69 -20 85 -25 63 -19 223 -42 295 -42 85 0 262 10 300 17 89 17 126 22 132
19 3 -2 8 0 10 5 1 5 19 11 38 14 58 9 82 16 117 32 18 9 38 13 43 10 6 -3 10
-2 10 3 0 9 37 25 53 23 4 -1 7 3 7 9 0 6 3 9 8 8 13 -3 62 25 62 35 0 6 3 8
6 4 9 -8 144 62 144 75 0 5 4 7 9 3 5 -3 18 5 28 17 10 13 25 24 33 26 8 2 22
10 31 18 8 8 19 14 24 14 5 0 32 24 60 53 65 65 109 103 126 110 10 4 10 6 2
6 -7 1 5 20 27 42 22 23 40 45 40 50 0 4 9 11 20 14 11 4 18 11 15 16 -4 5 -2
9 3 9 5 0 17 16 28 35 10 19 22 35 27 35 4 0 6 4 3 8 -3 5 8 23 24 40 16 18
27 32 25 32 -2 0 12 28 30 63 35 63 78 148 80 157 2 6 11 31 22 58 4 9 8 22 9
27 1 6 3 13 4 18 1 4 4 12 5 17 1 6 4 12 5 15 3 7 7 22 9 36 0 5 6 7 13 3 6
-4 8 -3 4 4 -8 13 15 104 29 114 6 5 6 8 -2 8 -9 0 -10 7 -2 27 5 15 12 47 15
72 9 90 10 667 0 706 -5 22 -21 52 -36 67 l-28 26 -423 1 c-233 0 -912 2
-1509 3 -597 2 -1096 1 -1110 0z"/>
</g>
</svg>
